<?xml version="1.0" encoding="iso-8859-1"?>
<!-- Generator: Adobe Illustrator 19.0.0, SVG Export Plug-In . SVG Version: 6.00 Build 0)  -->
<svg version="1.1" id="Layer_1" xmlns="http://www.w3.org/2000/svg" xmlns:xlink="http://www.w3.org/1999/xlink" x="0px" y="0px"
	 viewBox="0 0 512 512" style="enable-background:new 0 0 512 512;" xml:space="preserve">
<g>
	<g>
		<path d="M151.755,32.206c-4.783,0-8.661,3.878-8.661,8.661v19.312h-14.147V40.867c0-4.783-3.878-8.661-8.661-8.661
			c-4.783,0-8.661,3.878-8.661,8.661v55.944c0,4.783,3.878,8.661,8.661,8.661c4.783,0,8.661-3.878,8.661-8.661v-19.31h14.147v19.31
			c0,4.783,3.878,8.661,8.661,8.661s8.661-3.878,8.661-8.661V40.867C160.416,36.084,156.538,32.206,151.755,32.206z"/>
	</g>
</g>
<g>
	<g>
		<path d="M201.393,32.206c-13.451,0-24.395,10.944-24.395,24.396v24.474c0,13.451,10.944,24.395,24.395,24.395
			c13.452,0,24.396-10.944,24.396-24.395V56.602C225.789,43.15,214.845,32.206,201.393,32.206z M208.468,81.076
			c0,3.9-3.173,7.073-7.074,7.073c-3.9,0-7.073-3.173-7.073-7.073V56.602c0-3.901,3.173-7.074,7.073-7.074
			c3.901,0,7.074,3.173,7.074,7.074V81.076z"/>
	</g>
</g>
<g>
	<g>
		<path d="M338.466,88.15h-22.808V77.74h12.796c4.783,0,8.661-3.878,8.661-8.661c0-4.783-3.878-8.661-8.661-8.661h-12.796v-10.89
			h22.808c4.783,0,8.661-3.878,8.661-8.661s-3.878-8.661-8.661-8.661h-31.469c-4.783,0-8.661,3.878-8.661,8.661v55.944
			c0,4.783,3.878,8.661,8.661,8.661h31.469c4.783,0,8.661-3.878,8.661-8.661S343.249,88.15,338.466,88.15z"/>
	</g>
</g>
<g>
	<g>
		<path d="M403.262,88.15h-22.808V40.867c0-4.783-3.878-8.661-8.661-8.661s-8.661,3.878-8.661,8.661v55.944
			c0,4.783,3.878,8.661,8.661,8.661h31.469c4.783,0,8.661-3.878,8.661-8.661S408.045,88.15,403.262,88.15z"/>
	</g>
</g>
<g>
	<g>
		<path d="M275.064,32.206h-31.469c-4.783,0-8.661,3.878-8.661,8.661s3.878,8.661,8.661,8.661h7.073v47.283
			c0,4.783,3.878,8.661,8.661,8.661c4.783,0,8.661-3.878,8.661-8.661V49.528h7.074c4.783,0,8.661-3.878,8.661-8.661
			S279.847,32.206,275.064,32.206z"/>
	</g>
</g>
<g>
	<g>
		<path d="M484.414,234.103c-4.783,0-8.661,3.878-8.661,8.661v251.914h-80.519v-50.63c0-19.837-16.138-35.975-35.974-35.975
			c-19.837,0-35.975,16.138-35.975,35.975v50.63h-31.31v-50.63c0-19.837-16.138-35.975-35.974-35.975
			c-19.836,0-35.974,16.138-35.974,35.975v50.63h-31.31v-50.63c0-19.837-16.138-35.975-35.975-35.975
			c-19.836,0-35.974,16.138-35.974,35.975v50.63h-80.52v-48.67c0-4.783-3.878-8.661-8.661-8.661c-4.783,0-8.661,3.878-8.661,8.661
			v57.331c0,4.783,3.878,8.661,8.661,8.661h456.828c4.783,0,8.661-3.878,8.661-8.661V242.764
			C493.075,237.981,489.197,234.103,484.414,234.103z M171.393,494.678h-37.306v-50.63c0-10.286,8.368-18.653,18.652-18.653
			c10.286,0,18.653,8.368,18.653,18.653V494.678z M274.653,494.678h-37.306v-50.63c0-10.286,8.368-18.653,18.653-18.653
			c10.285,0,18.652,8.368,18.652,18.653V494.678z M377.912,494.678h-37.306v-50.63c0-10.286,8.368-18.653,18.653-18.653
			c10.285,0,18.652,8.368,18.652,18.653V494.678z"/>
	</g>
</g>
<g>
	<g>
		<path d="M85.389,335.902c-13.371,0-24.251,10.878-24.251,24.251v32.91c0,4.783,3.878,8.661,8.661,8.661h31.178
			c4.783,0,8.661-3.878,8.661-8.661v-32.91C109.639,346.781,98.76,335.902,85.389,335.902z M92.317,384.402H78.46v-24.25
			c0-3.82,3.108-6.929,6.929-6.929c3.821,0,6.928,3.108,6.928,6.929V384.402z"/>
	</g>
</g>
<g>
	<g>
		<path d="M221.878,335.902c-13.373,0-24.25,10.878-24.25,24.251v32.91c0,4.783,3.878,8.661,8.661,8.661h31.178
			c4.783,0,8.661-3.878,8.661-8.661v-32.91C246.128,346.781,235.25,335.902,221.878,335.902z M228.806,384.402H214.95v-24.25
			c0-3.82,3.108-6.929,6.928-6.929s6.929,3.108,6.929,6.929V384.402z"/>
	</g>
</g>
<g>
	<g>
		<path d="M153.633,335.902c-13.372,0-24.25,10.878-24.25,24.251v32.91c0,4.783,3.878,8.661,8.661,8.661h31.178
			c4.783,0,8.661-3.878,8.661-8.661v-32.91C177.883,346.781,167.005,335.902,153.633,335.902z M160.561,384.402h-13.856v-24.25
			c0-3.82,3.108-6.929,6.928-6.929s6.929,3.108,6.929,6.929V384.402z"/>
	</g>
</g>
<g>
	<g>
		<path d="M290.124,335.902c-13.371,0-24.251,10.878-24.251,24.251v32.91c0,4.783,3.878,8.661,8.661,8.661h31.178
			c4.783,0,8.661-3.878,8.661-8.661v-32.91C314.373,346.781,303.495,335.902,290.124,335.902z M297.051,384.402h-13.856v-24.25
			c0-3.82,3.108-6.929,6.929-6.929s6.928,3.108,6.928,6.929V384.402z"/>
	</g>
</g>
<g>
	<g>
		<path d="M426.612,335.902c-13.372,0-24.25,10.878-24.25,24.251v32.91c0,4.783,3.878,8.661,8.661,8.661h31.178
			c4.783,0,8.661-3.878,8.661-8.661v-32.91C450.863,346.781,439.985,335.902,426.612,335.902z M433.541,384.402h-13.856v-24.25
			c0-3.82,3.108-6.929,6.928-6.929c3.82,0,6.929,3.108,6.929,6.929V384.402z"/>
	</g>
</g>
<g>
	<g>
		<path d="M358.368,335.902c-13.371,0-24.251,10.878-24.251,24.251v32.91c0,4.783,3.878,8.661,8.661,8.661h31.178
			c4.783,0,8.661-3.878,8.661-8.661v-32.91C382.618,346.781,371.74,335.902,358.368,335.902z M365.296,384.402H351.44v-24.25
			c0-3.82,3.108-6.929,6.929-6.929s6.928,3.108,6.928,6.929V384.402z"/>
	</g>
</g>
<g>
	<g>
		<path d="M85.389,251.895c-13.371,0-24.251,10.878-24.251,24.25v32.91c0,4.783,3.878,8.661,8.661,8.661h31.178
			c4.783,0,8.661-3.878,8.661-8.661v-32.91C109.639,262.773,98.76,251.895,85.389,251.895z M92.317,300.394H78.46v-24.25
			c0-3.82,3.108-6.928,6.929-6.928c3.821,0,6.928,3.108,6.928,6.928V300.394z"/>
	</g>
</g>
<g>
	<g>
		<path d="M221.878,251.895c-13.373,0-24.25,10.878-24.25,24.25v32.91c0,4.783,3.878,8.661,8.661,8.661h31.178
			c4.783,0,8.661-3.878,8.661-8.661v-32.91C246.128,262.773,235.25,251.895,221.878,251.895z M228.806,300.394H214.95v-24.25
			c0-3.82,3.108-6.928,6.928-6.928s6.929,3.108,6.929,6.928V300.394z"/>
	</g>
</g>
<g>
	<g>
		<path d="M153.633,251.895c-13.372,0-24.25,10.878-24.25,24.25v32.91c0,4.783,3.878,8.661,8.661,8.661h31.178
			c4.783,0,8.661-3.878,8.661-8.661v-32.91C177.883,262.773,167.005,251.895,153.633,251.895z M160.561,300.394h-13.856v-24.25
			c0-3.82,3.108-6.928,6.928-6.928s6.929,3.108,6.929,6.928V300.394z"/>
	</g>
</g>
<g>
	<g>
		<path d="M290.124,251.895c-13.371,0-24.251,10.878-24.251,24.25v32.91c0,4.783,3.878,8.661,8.661,8.661h31.178
			c4.783,0,8.661-3.878,8.661-8.661v-32.91C314.373,262.773,303.495,251.895,290.124,251.895z M297.051,300.394h-13.856v-24.25
			c0-3.82,3.108-6.928,6.929-6.928s6.928,3.108,6.928,6.928V300.394z"/>
	</g>
</g>
<g>
	<g>
		<path d="M426.612,251.895c-13.372,0-24.25,10.878-24.25,24.25v32.91c0,4.783,3.878,8.661,8.661,8.661h31.178
			c4.783,0,8.661-3.878,8.661-8.661v-32.91C450.863,262.773,439.985,251.895,426.612,251.895z M433.541,300.394h-13.856v-24.25
			c0-3.82,3.108-6.928,6.928-6.928c3.82,0,6.929,3.108,6.929,6.928V300.394z"/>
	</g>
</g>
<g>
	<g>
		<path d="M358.368,251.895c-13.371,0-24.251,10.878-24.251,24.25v32.91c0,4.783,3.878,8.661,8.661,8.661h31.178
			c4.783,0,8.661-3.878,8.661-8.661v-32.91C382.618,262.773,371.74,251.895,358.368,251.895z M365.296,300.394H351.44v-24.25
			c0-3.82,3.108-6.928,6.929-6.928s6.928,3.108,6.928,6.928V300.394z"/>
	</g>
</g>
<g>
	<g>
		<path d="M85.388,167.887c-13.371,0-24.251,10.878-24.251,24.251v32.911c0,4.783,3.878,8.661,8.661,8.661h31.178
			c4.783,0,8.661-3.878,8.661-8.661v-32.911C109.637,178.767,98.759,167.887,85.388,167.887z M92.317,216.388H78.46v-24.25
			c0-3.82,3.108-6.929,6.929-6.929c3.821,0,6.928,3.108,6.928,6.929V216.388z"/>
	</g>
</g>
<g>
	<g>
		<path d="M221.876,167.887c-13.372,0-24.25,10.878-24.25,24.251v32.911c0,4.783,3.878,8.661,8.661,8.661h31.178
			c4.783,0,8.661-3.878,8.661-8.661v-32.911C246.127,178.767,235.249,167.887,221.876,167.887z M228.806,216.388H214.95v-24.25
			c0-3.82,3.108-6.929,6.928-6.929s6.929,3.108,6.929,6.929V216.388z"/>
	</g>
</g>
<g>
	<g>
		<path d="M153.632,167.887c-13.373,0-24.25,10.878-24.25,24.251v32.911c0,4.783,3.878,8.661,8.661,8.661h31.178
			c4.783,0,8.661-3.878,8.661-8.661v-32.911C177.882,178.767,167.004,167.887,153.632,167.887z M160.561,216.388h-13.856v-24.25
			c0-3.82,3.108-6.929,6.928-6.929s6.929,3.108,6.929,6.929V216.388z"/>
	</g>
</g>
<g>
	<g>
		<path d="M290.122,167.887c-13.371,0-24.251,10.878-24.251,24.251v32.911c0,4.783,3.878,8.661,8.661,8.661h31.178
			c4.783,0,8.661-3.878,8.661-8.661v-32.911C314.372,178.767,303.494,167.887,290.122,167.887z M297.051,216.388h-13.856v-24.25
			c0-3.82,3.108-6.929,6.929-6.929s6.928,3.108,6.928,6.929V216.388z"/>
	</g>
</g>
<g>
	<g>
		<path d="M426.612,167.887c-13.372,0-24.25,10.878-24.25,24.251v32.911c0,4.783,3.878,8.661,8.661,8.661h31.178
			c4.783,0,8.661-3.878,8.661-8.661v-32.911C450.863,178.767,439.985,167.887,426.612,167.887z M433.541,216.388h-13.856v-24.25
			c0-3.82,3.108-6.929,6.928-6.929c3.82,0,6.929,3.108,6.929,6.929V216.388z"/>
	</g>
</g>
<g>
	<g>
		<path d="M358.367,167.887c-13.371,0-24.251,10.878-24.251,24.251v32.911c0,4.783,3.878,8.661,8.661,8.661h31.178
			c4.783,0,8.661-3.878,8.661-8.661v-32.911C382.617,178.767,371.739,167.887,358.367,167.887z M365.296,216.388H351.44v-24.25
			c0-3.82,3.108-6.929,6.929-6.929s6.928,3.108,6.928,6.929V216.388z"/>
	</g>
</g>
<g>
	<g>
		<path d="M499.235,116.665h-38.846V8.661c0-4.783-3.878-8.661-8.661-8.661h-70.049c-4.783,0-8.661,3.878-8.661,8.661
			s3.878,8.661,8.661,8.661h61.388v99.344H68.933V17.322h283.876c4.783,0,8.661-3.878,8.661-8.661S357.592,0,352.809,0H60.272
			c-4.783,0-8.661,3.878-8.661,8.661v108.004H12.765c-4.783,0-8.661,3.878-8.661,8.661v24.663c0,4.783,3.878,8.661,8.661,8.661h6.16
			v258.487c0,4.783,3.878,8.661,8.661,8.661c4.783,0,8.661-3.878,8.661-8.661V158.651h439.507v55.243
			c0,4.783,3.878,8.661,8.661,8.661c4.783,0,8.661-3.878,8.661-8.661v-55.243h6.16c4.783,0,8.661-3.878,8.661-8.661v-24.663
			C507.896,120.543,504.018,116.665,499.235,116.665z M490.574,141.33H21.426v-7.341h469.148V141.33z"/>
	</g>
</g>
<g>
</g>
<g>
</g>
<g>
</g>
<g>
</g>
<g>
</g>
<g>
</g>
<g>
</g>
<g>
</g>
<g>
</g>
<g>
</g>
<g>
</g>
<g>
</g>
<g>
</g>
<g>
</g>
<g>
</g>
</svg>
