<svg height="512" viewBox="0 0 512 512" width="512" xmlns="http://www.w3.org/2000/svg"><g><path d="m464 488h-32v-392a8 8 0 0 0 -8-8h-32v-72a8 8 0 0 0 -8-8h-256a8 8 0 0 0 -8 8v72h-32a8 8 0 0 0 -8 8v392h-64a8 8 0 0 0 0 16h448a8 8 0 0 0 0-16zm-328-464h240v8h-240zm0 24h240v40h-240zm176 440h-112v-8h112zm-96-24v-80h32v80zm48 0v-80h32v80zm152 24h-88v-16a8 8 0 0 0 -8-8h-8v-88a8 8 0 0 0 -8-8h-96a8 8 0 0 0 -8 8v88h-8a8 8 0 0 0 -8 8v16h-88v-384h320z"/><path d="m296 320v-64a8 8 0 0 0 -8-8h-64a8 8 0 0 0 -8 8v64a8 8 0 0 0 -8 8v24a8 8 0 0 0 8 8h80a8 8 0 0 0 8-8v-24a8 8 0 0 0 -8-8zm-16-56v8h-48v-8zm-48 24h48v32h-48zm56 56h-64v-8h64z"/><path d="m192 320v-64a8 8 0 0 0 -8-8h-64a8 8 0 0 0 -8 8v64a8 8 0 0 0 -8 8v24a8 8 0 0 0 8 8h80a8 8 0 0 0 8-8v-24a8 8 0 0 0 -8-8zm-16-56v8h-48v-8zm-48 24h48v32h-48zm56 56h-64v-8h64z"/><path d="m400 320v-64a8 8 0 0 0 -8-8h-64a8 8 0 0 0 -8 8v64a8 8 0 0 0 -8 8v24a8 8 0 0 0 8 8h80a8 8 0 0 0 8-8v-24a8 8 0 0 0 -8-8zm-16-56v8h-48v-8zm-48 24h48v32h-48zm56 56h-64v-8h64z"/><path d="m296 192v-64a8 8 0 0 0 -8-8h-64a8 8 0 0 0 -8 8v64a8 8 0 0 0 -8 8v24a8 8 0 0 0 8 8h80a8 8 0 0 0 8-8v-24a8 8 0 0 0 -8-8zm-16-56v8h-48v-8zm-48 24h48v32h-48zm56 56h-64v-8h64z"/><path d="m192 192v-64a8 8 0 0 0 -8-8h-64a8 8 0 0 0 -8 8v64a8 8 0 0 0 -8 8v24a8 8 0 0 0 8 8h80a8 8 0 0 0 8-8v-24a8 8 0 0 0 -8-8zm-16-56v8h-48v-8zm-48 24h48v32h-48zm56 56h-64v-8h64z"/><path d="m400 192v-64a8 8 0 0 0 -8-8h-64a8 8 0 0 0 -8 8v64a8 8 0 0 0 -8 8v24a8 8 0 0 0 8 8h80a8 8 0 0 0 8-8v-24a8 8 0 0 0 -8-8zm-16-56v8h-48v-8zm-48 24h48v32h-48zm56 56h-64v-8h64z"/><path d="m496 488h-8a8 8 0 0 0 0 16h8a8 8 0 0 0 0-16z"/></g></svg>