<svg id="Layer_1" enable-background="new 0 0 512 512" height="512" viewBox="0 0 512 512" width="512" xmlns="http://www.w3.org/2000/svg"><path d="m379.006 80.686 30.447-36.003c4.992-5.903 4.68-14.634-.721-20.166l-19.525-19.996c-2.823-2.891-6.692-4.521-10.732-4.521h-59.051c-4.04 0-7.91 1.63-10.732 4.521l-19.525 19.996c-5.401 5.532-5.714 14.262-.722 20.166l30.447 36.003c-58.341 10.918-105.84 52.998-124.485 108.249-10.151-1.985-20.632-3.037-31.355-3.037-89.908 0-163.052 73.144-163.052 163.05 0 89.907 73.144 163.051 163.051 163.051 71.728 0 132.784-46.557 154.543-111.037 10.151 1.985 20.632 3.037 31.355 3.037 89.907 0 163.051-73.144 163.051-163.05 0-79.64-57.396-146.117-132.994-160.263zm-53.265-50.685h46.415l5.586 5.721-28.793 34.048-28.793-34.048zm-162.69 451.998c-73.364 0-133.051-59.686-133.051-133.051s59.687-133.05 133.051-133.05c8.35 0 16.52.781 24.448 2.26-1.047 7.45-1.601 15.057-1.601 22.791 0 68.665 42.667 127.547 102.879 151.54-18.075 52.045-67.605 89.51-125.726 89.51zm132.34-119.269c-46.767-20.648-79.492-67.461-79.492-121.781 0-4.653.242-9.25.711-13.782 46.767 20.648 79.492 67.461 79.492 121.781 0 4.653-.243 9.251-.711 13.782zm53.558 11.269c-8.35 0-16.52-.781-24.448-2.26 1.047-7.45 1.601-15.057 1.601-22.791 0-68.665-42.667-127.547-102.879-151.54 18.075-52.045 67.605-89.51 125.726-89.51 73.364 0 133.051 59.687 133.051 133.051s-59.687 133.05-133.051 133.05z"/></svg>